HIERARCHY
ROOT Root
{
  OFFSET 0.0 0.0 0.0
  CHANNELS 6 Xposition Yposition Zposition Zrotation Yrotation Xrotation
  JOINT Hips
  {
    OFFSET 0.0 100.0 0.0
    CHANNELS 6 Xposition Yposition Zposition Zrotation Yrotation Xrotation
    JOINT Spine1
    {
      OFFSET -0.013727 5.003763 -0.053727
      CHANNELS 3 Zrotation Yrotation Xrotation
      JOINT Spine2
      {
        OFFSET -0.0 7.125301 -0.029825
        CHANNELS 3 Zrotation Yrotation Xrotation
        JOINT Chest
        {
          OFFSET -1e-06 7.550063 -0.815971
          CHANNELS 3 Zrotation Yrotation Xrotation
          JOINT Neck1
          {
            OFFSET -0.181677 26.311295 -0.553348
            CHANNELS 3 Zrotation Yrotation Xrotation
            JOINT Neck2
            {
              OFFSET -3e-06 7.709397 2.302585
              CHANNELS 3 Zrotation Yrotation Xrotation
              JOINT Head
              {
                OFFSET -5e-06 6.128916 1.953709
                CHANNELS 3 Zrotation Yrotation Xrotation
                JOINT HeadEnd
                {
                  OFFSET 0.003598 16.065403 -1.835379
                  CHANNELS 3 Zrotation Yrotation Xrotation
                }
                JOINT Jaw
                {
                  OFFSET 0.002637 0.475592 3.094941
                  CHANNELS 3 Zrotation Yrotation Xrotation
                }
                JOINT LeftEye
                {
                  OFFSET 3.206381 5.380205 7.586883
                  CHANNELS 3 Zrotation Yrotation Xrotation
                }
                JOINT RightEye
                {
                  OFFSET -3.22244 5.361869 7.558234
                  CHANNELS 3 Zrotation Yrotation Xrotation
                }
              }
            }
          }
          JOINT LeftShoulder
          {
            OFFSET 1.621652 23.237164 5.113413
            CHANNELS 3 Zrotation Yrotation Xrotation
            JOINT LeftArm
            {
              OFFSET 14.919846 2e-06 -5.502326
              CHANNELS 3 Zrotation Yrotation Xrotation
              JOINT LeftForeArm
              {
                OFFSET 28.739307 0.0 -0.002588
                CHANNELS 3 Zrotation Yrotation Xrotation
                JOINT LeftHand
                {
                  OFFSET 27.093981 -1e-06 0.002609
                  CHANNELS 3 Zrotation Yrotation Xrotation
                  JOINT LeftHandThumb1
                  {
                    OFFSET 2.276482 -1.392045 3.191413
                    CHANNELS 3 Zrotation Yrotation Xrotation
                    JOINT LeftHandThumb2
                    {
                      OFFSET 4.012836 -1.828127 1.641654
                      CHANNELS 3 Zrotation Yrotation Xrotation
                      JOINT LeftHandThumb3
                      {
                        OFFSET 2.798515 0.0 -3e-06
                        CHANNELS 3 Zrotation Yrotation Xrotation
                        JOINT LeftHandThumbEnd
                        {
                          OFFSET 3.180793 -4e-06 4e-06
                          CHANNELS 3 Zrotation Yrotation Xrotation
                        }
                      }
                    }
                  }
                  JOINT LeftHandIndex1
                  {
                    OFFSET 3.247555 -0.531998 2.296169
                    CHANNELS 3 Zrotation Yrotation Xrotation
                    JOINT LeftHandIndex2
                    {
                      OFFSET 6.364578 0.01206 0.1786
                      CHANNELS 3 Zrotation Yrotation Xrotation
                      JOINT LeftHandIndex3
                      {
                        OFFSET 3.662364 0.0 0.0
                        CHANNELS 3 Zrotation Yrotation Xrotation
                        JOINT LeftHandIndex4
                        {
                          OFFSET 2.329242 4e-06 4e-06
                          CHANNELS 3 Zrotation Yrotation Xrotation
                          JOINT LeftHandIndexEnd
                          {
                            OFFSET 2.759615 -0.180537 -0.113024
                            CHANNELS 3 Zrotation Yrotation Xrotation
                          }
                        }
                      }
                    }
                  }
                  JOINT LeftHandMiddle1
                  {
                    OFFSET 3.163495 0.240981 1.000332
                    CHANNELS 3 Zrotation Yrotation Xrotation
                    JOINT LeftHandMiddle2
                    {
                      OFFSET 6.19078 -0.259278 -1.002548
                      CHANNELS 3 Zrotation Yrotation Xrotation
                      JOINT LeftHandMiddle3
                      {
                        OFFSET 4.35652 -4e-06 -1e-06
                        CHANNELS 3 Zrotation Yrotation Xrotation
                        JOINT LeftHandMiddle4
                        {
                          OFFSET 2.996877 -8e-06 0.0
                          CHANNELS 3 Zrotation Yrotation Xrotation
                          JOINT LeftHandMiddleEnd
                          {
                            OFFSET 2.304287 -0.294569 -0.031741
                            CHANNELS 3 Zrotation Yrotation Xrotation
                          }
                        }
                      }
                    }
                  }
                  JOINT LeftHandRing1
                  {
                    OFFSET 2.882643 -0.053652 -0.322543
                    CHANNELS 3 Zrotation Yrotation Xrotation
                    JOINT LeftHandRing2
                    {
                      OFFSET 5.854541 -0.486202 -1.373841
                      CHANNELS 3 Zrotation Yrotation Xrotation
                      JOINT LeftHandRing3
                      {
                        OFFSET 4.350578 0.0 3e-06
                        CHANNELS 3 Zrotation Yrotation Xrotation
                        JOINT LeftHandRing4
                        {
                          OFFSET 2.651321 7e-06 2e-06
                          CHANNELS 3 Zrotation Yrotation Xrotation
                          JOINT LeftHandRingEnd
                          {
                            OFFSET 1.936105 0.077687 -7.1e-05
                            CHANNELS 3 Zrotation Yrotation Xrotation
                          }
                        }
                      }
                    }
                  }
                  JOINT LeftHandPinky1
                  {
                    OFFSET 2.8655 -0.310005 -1.600378
                    CHANNELS 3 Zrotation Yrotation Xrotation
                    JOINT LeftHandPinky2
                    {
                      OFFSET 5.087849 -1.331141 -1.77123
                      CHANNELS 3 Zrotation Yrotation Xrotation
                      JOINT LeftHandPinky3
                      {
                        OFFSET 3.070974 4e-06 0.0
                        CHANNELS 3 Zrotation Yrotation Xrotation
                        JOINT LeftHandPinky4
                        {
                          OFFSET 1.549672 0.0 1e-06
                          CHANNELS 3 Zrotation Yrotation Xrotation
                          JOINT LeftHandPinkyEnd
                          {
                            OFFSET 1.944893 -0.157802 0.057219
                            CHANNELS 3 Zrotation Yrotation Xrotation
                          }
                        }
                      }
                    }
                  }
                }
              }
            }
          }
          JOINT RightShoulder
          {
            OFFSET -1.380118 23.180309 5.214158
            CHANNELS 3 Zrotation Yrotation Xrotation
            JOINT RightArm
            {
              OFFSET -15.037196 1.2e-05 -5.545604
              CHANNELS 3 Zrotation Yrotation Xrotation
              JOINT RightForeArm
              {
                OFFSET -28.736639 2e-06 -0.002597
                CHANNELS 3 Zrotation Yrotation Xrotation
                JOINT RightHand
                {
                  OFFSET -27.133619 -0.0 0.002613
                  CHANNELS 3 Zrotation Yrotation Xrotation
                  JOINT RightHandThumb1
                  {
                    OFFSET -2.274032 -1.383988 3.163127
                    CHANNELS 3 Zrotation Yrotation Xrotation
                    JOINT RightHandThumb2
                    {
                      OFFSET -4.011429 -1.827466 1.640914
                      CHANNELS 3 Zrotation Yrotation Xrotation
                      JOINT RightHandThumb3
                      {
                        OFFSET -2.794935 -4e-06 -3e-06
                        CHANNELS 3 Zrotation Yrotation Xrotation
                        JOINT RightHandThumbEnd
                        {
                          OFFSET -3.183852 4e-06 1e-06
                          CHANNELS 3 Zrotation Yrotation Xrotation
                        }
                      }
                    }
                  }
                  JOINT RightHandIndex1
                  {
                    OFFSET -3.253266 -0.520057 2.282866
                    CHANNELS 3 Zrotation Yrotation Xrotation
                    JOINT RightHandIndex2
                    {
                      OFFSET -6.341917 0.012471 0.178266
                      CHANNELS 3 Zrotation Yrotation Xrotation
                      JOINT RightHandIndex3
                      {
                        OFFSET -3.654871 -8e-06 -0.0
                        CHANNELS 3 Zrotation Yrotation Xrotation
                        JOINT RightHandIndex4
                        {
                          OFFSET -2.327586 0.0 1e-06
                          CHANNELS 3 Zrotation Yrotation Xrotation
                          JOINT RightHandIndexEnd
                          {
                            OFFSET -2.76179 -0.180656 -0.113078
                            CHANNELS 3 Zrotation Yrotation Xrotation
                          }
                        }
                      }
                    }
                  }
                  JOINT RightHandMiddle1
                  {
                    OFFSET -3.168106 0.246593 1.00103
                    CHANNELS 3 Zrotation Yrotation Xrotation
                    JOINT RightHandMiddle2
                    {
                      OFFSET -6.180828 -0.258836 -1.000895
                      CHANNELS 3 Zrotation Yrotation Xrotation
                      JOINT RightHandMiddle3
                      {
                        OFFSET -4.348901 0.0 -0.0
                        CHANNELS 3 Zrotation Yrotation Xrotation
                        JOINT RightHandMiddle4
                        {
                          OFFSET -3.00024 -4e-06 -2e-06
                          CHANNELS 3 Zrotation Yrotation Xrotation
                          JOINT RightHandMiddleEnd
                          {
                            OFFSET -2.30252 -0.29437 -0.031706
                            CHANNELS 3 Zrotation Yrotation Xrotation
                          }
                        }
                      }
                    }
                  }
                  JOINT RightHandRing1
                  {
                    OFFSET -2.88569 -0.067952 -0.308858
                    CHANNELS 3 Zrotation Yrotation Xrotation
                    JOINT RightHandRing2
                    {
                      OFFSET -5.854198 -0.48613 -1.373731
                      CHANNELS 3 Zrotation Yrotation Xrotation
                      JOINT RightHandRing3
                      {
                        OFFSET -4.33881 -4e-06 -0.0
                        CHANNELS 3 Zrotation Yrotation Xrotation
                        JOINT RightHandRing4
                        {
                          OFFSET -2.654903 -4e-06 4e-06
                          CHANNELS 3 Zrotation Yrotation Xrotation
                          JOINT RightHandRingEnd
                          {
                            OFFSET -1.933568 0.077527 -5.2e-05
                            CHANNELS 3 Zrotation Yrotation Xrotation
                          }
                        }
                      }
                    }
                  }
                  JOINT RightHandPinky1
                  {
                    OFFSET -2.866425 -0.342796 -1.584145
                    CHANNELS 3 Zrotation Yrotation Xrotation
                    JOINT RightHandPinky2
                    {
                      OFFSET -5.091371 -1.332055 -1.772385
                      CHANNELS 3 Zrotation Yrotation Xrotation
                      JOINT RightHandPinky3
                      {
                        OFFSET -3.062664 -4e-06 1e-06
                        CHANNELS 3 Zrotation Yrotation Xrotation
                        JOINT RightHandPinky4
                        {
                          OFFSET -1.546529 4e-06 -2e-06
                          CHANNELS 3 Zrotation Yrotation Xrotation
                          JOINT RightHandPinkyEnd
                          {
                            OFFSET -1.945119 -0.157718 0.057211
                            CHANNELS 3 Zrotation Yrotation Xrotation
                          }
                        }
                      }
                    }
                  }
                }
              }
            }
          }
        }
      }
    }
    JOINT LeftLeg
    {
      OFFSET 10.043214 -8.434526 2.595655
      CHANNELS 3 Zrotation Yrotation Xrotation
      JOINT LeftShin
      {
        OFFSET -1e-06 -43.221752 -0.802913
        CHANNELS 3 Zrotation Yrotation Xrotation
        JOINT LeftFoot
        {
          OFFSET 1e-06 -42.155094 -3.481523
          CHANNELS 3 Zrotation Yrotation Xrotation
          JOINT LeftToeBase
          {
            OFFSET 0.0 -5.059472 13.231529
            CHANNELS 3 Zrotation Yrotation Xrotation
            JOINT LeftToeEnd
            {
              OFFSET -0.009607 -1.647619 6.513017
              CHANNELS 3 Zrotation Yrotation Xrotation
            }
          }
        }
      }
    }
    JOINT RightLeg
    {
      OFFSET -10.047278 -8.29526 2.620317
      CHANNELS 3 Zrotation Yrotation Xrotation
      JOINT RightShin
      {
        OFFSET 1e-06 -43.362206 -0.805556
        CHANNELS 3 Zrotation Yrotation Xrotation
        JOINT RightFoot
        {
          OFFSET 2e-06 -42.117393 -3.478398
          CHANNELS 3 Zrotation Yrotation Xrotation
          JOINT RightToeBase
          {
            OFFSET -0.0 -5.079609 13.284196
            CHANNELS 3 Zrotation Yrotation Xrotation
            JOINT RightToeEnd
            {
              OFFSET 0.009532 -1.634378 6.460591
              CHANNELS 3 Zrotation Yrotation Xrotation
            }
          }
        }
      }
    }
  }
}
MOTION
Frames: 4
Frame Time: 0.03333333333333333
0.0 0.0 0.0 0.0 -0.0 0.0 4.019646 96.969215 2.621808 5.638453 0.328873 -2.695279 -1.75326 0.352209 1.609592 -0.930059 2.177843 -4.660042 -0.373249 0.147308 11.486677 -0.38138 3.19728 7.656805 -1.124097 -1.671871 -3.541589 4.209923 -3.453276 -11.236183 7.7e-05 -2.2e-05 6e-06 0.012136 0.033966 0.083284 0.686025 -3.717647 -10.529769 -0.669054 3.79208 -10.570011 -3.773374 -5.082661 16.060869 -68.666618 -10.32271 28.207268 -0.865544 -30.34037 0.364413 12.361381 6.69147 -12.19091 -5.882111 9.861291 0.70259 -10.936879 -0.360575 7.15621 1e-06 8.774831 1e-06 -16.84025 18.81188 5.693846 -1.844033 2.498505 -2.507281 -10.163607 4.678947 4.621111 -20.97604 -4e-06 2e-06 -21.226303 2.451697 -3.594003 2e-06 -6e-06 -1e-06 -1.362682 2.2408 -0.746323 -21.334929 0.58491 3.008323 -13.821222 -3e-06 1e-06 -23.887184 -0.24908 -0.839484 -60.739998 2.505962 -1.32889 -0.294024 1.679688 0.833257 -14.218219 0.093215 1.300579 -34.212078 -0.287565 0.967168 -20.03323 0.964536 1.212844 -0.0 1e-06 0.0 -3.44039 0.788234 0.501656 -15.928201 -3.16731 2.999708 -6.338832 -1e-06 1e-06 -18.123459 3.648185 -4.905675 -5e-06 -0.0 -2e-06 9.032545 14.896774 17.363489 65.610168 13.35875 13.316894 -0.020014 27.515135 -0.128766 -8.311024 -6.076007 -15.819886 2.243542 -5.255037 -3.180156 14.282891 -0.826593 6.952498 -4e-06 -12.690606 -1e-06 16.647894 -17.470388 2.362344 1.665667 -1.955922 -2.878297 4.727798 -4.170588 4.993922 11.020526 3e-06 -3e-06 12.109053 -3.735715 -2.866784 -1e-06 -0.0 0.0 1.291986 -1.928549 -1.498087 14.800129 0.567469 3.865604 14.242574 -1.341736 -6.660655 19.631969 0.143928 -0.648244 49.399662 -0.423437 -6.057629 0.353028 -1.511149 -0.03194 20.22279 3.684312 2.316629 18.787275 8e-06 -0.0 10.751629 -0.479867 1.397905 -2e-06 0.0 0.0 3.273807 0.305948 -0.580112 21.486814 11.83038 2.266132 8.162924 3e-06 -1e-06 18.399076 -3.798983 -4.940577 4e-06 1e-06 -2e-06 -7.890661 4.084776 -13.089942 0.119072 0.103758 25.851326 0.235378 5.225538 -10.429284 1.591215 -2.083382 -0.658911 0.0 -0.0 2e-06 -6.506642 2.316116 -9.580889 0.004821 -0.145956 72.226837 -1.205625 -9.338046 18.374954 -1.404016 0.961019 -3.492007 0.0 0.0 -1e-06 
0.0 0.0 0.0 0.0 -0.0 0.0 4.583938 98.019089 6.687525 4.772204 1.009183 -3.496638 -1.447891 0.144466 1.9632 -0.713855 1.523392 -4.536664 -0.157859 -0.481164 11.592969 -0.518082 3.3111 7.985706 -1.102866 -1.75973 -3.522804 3.851549 -3.225988 -11.132808 7.7e-05 -2.3e-05 6e-06 0.008216 0.063739 0.045687 0.694722 -3.690836 -10.599156 -0.68467 3.823622 -10.631474 -3.558202 -5.429762 16.138494 -67.543068 -11.523205 26.733831 -1.03382 -31.777405 0.315182 13.241326 6.901864 -11.101864 -5.882108 9.861287 0.70259 -10.936873 -0.360574 7.156205 -0.0 8.774827 -2e-06 -16.568199 18.619984 5.73821 -1.844033 2.498505 -2.507277 -10.163604 4.678946 4.621109 -20.976032 -2e-06 3e-06 -21.226297 2.451699 -3.594002 1e-06 -6e-06 -1e-06 -1.362681 2.240799 -0.746324 -21.334917 0.584911 3.008324 -13.821217 -1e-06 2e-06 -23.887178 -0.249078 -0.839483 -60.458744 2.486536 -1.292471 -0.294026 1.679689 0.833257 -14.218212 0.093216 1.30058 -34.212063 -0.287564 0.967167 -20.033218 0.964537 1.212843 -0.0 1e-06 1e-06 -3.44039 0.788234 0.501655 -15.928191 -3.16731 2.999707 -6.338828 -1e-06 -0.0 -18.123453 3.648185 -4.905669 -3e-06 0.0 -2e-06 8.597191 14.200471 17.444065 66.400711 13.002887 13.065345 0.094264 28.790043 -0.035949 -8.75245 -5.850317 -16.129448 2.243544 -5.25504 -3.180161 14.282904 -0.826596 6.952511 -2e-06 -12.690613 -0.0 16.860138 -17.561308 2.319662 1.665668 -1.955923 -2.878304 4.727803 -4.170591 4.993928 11.020536 2e-06 -2e-06 12.109062 -3.735719 -2.866787 -1e-06 0.0 -1e-06 1.291987 -1.92855 -1.49809 14.80014 0.567467 3.865613 14.242584 -1.341737 -6.660666 19.631985 0.143925 -0.648246 49.780964 -0.234647 -5.91404 0.353029 -1.511151 -0.031941 20.222805 3.68431 2.316632 18.787289 3e-06 -1e-06 10.751637 -0.479869 1.397907 -1e-06 0.0 0.0 3.27381 0.305947 -0.58011 21.486832 11.830382 2.266136 8.162935 1e-06 -0.0 18.399099 -3.798989 -4.940581 5e-06 0.0 -1e-06 -7.031611 4.227763 -6.915464 0.022957 -0.050517 20.806284 0.28375 4.83394 -9.994393 1.600409 -2.100227 -0.124329 0.0 -0.0 2e-06 -4.967375 2.619322 -14.798643 -0.05188 -0.329575 74.173134 -2.846623 -10.832347 14.174747 -1.507618 0.96751 -3.033323 0.0 0.0 -1e-06 
0.0 0.0 0.0 0.0 -0.0 0.0 5.082365 98.789452 10.784803 3.428525 1.866778 -3.985539 -1.01605 -0.059866 2.171845 -0.51023 0.861008 -4.406479 0.307705 -1.274404 11.616003 -0.479332 3.207876 8.194406 -0.985763 -1.717661 -3.546656 3.452724 -2.962606 -10.869761 7.7e-05 -2.3e-05 6e-06 0.009104 0.05668 0.029441 0.6999 -3.697085 -10.640736 -0.686835 3.81463 -10.660084 -3.162284 -6.098246 16.053345 -66.316887 -12.147979 25.962791 -0.825171 -34.233871 0.178681 13.482914 6.986743 -10.118003 -5.88211 9.861292 0.70259 -10.936877 -0.360573 7.156209 -1e-06 8.77483 1e-06 -16.461283 18.569656 5.749995 -1.844032 2.498505 -2.507279 -10.163605 4.678949 4.621112 -20.976034 -1e-06 1e-06 -21.226297 2.4517 -3.594002 1e-06 -7e-06 -0.0 -1.362683 2.2408 -0.746324 -21.334925 0.584911 3.008324 -13.82122 -1e-06 1e-06 -23.887182 -0.249077 -0.839486 -60.389759 2.505044 -1.305974 -0.294025 1.679687 0.833257 -14.218215 0.093217 1.300581 -34.212067 -0.287559 0.96717 -20.033226 0.964538 1.212842 1e-06 1e-06 -1e-06 -3.44039 0.788234 0.501656 -15.928192 -3.167309 2.999709 -6.338829 0.0 1e-06 -18.123457 3.648187 -4.905676 -5e-06 0.0 -1e-06 8.535666 13.401485 17.478481 66.885506 12.257163 12.427095 0.188207 30.035505 0.003718 -8.957023 -5.517721 -16.520111 2.243543 -5.25504 -3.18016 14.2829 -0.826596 6.952507 -1e-06 -12.690615 -0.0 16.84901 -17.617514 2.356219 1.665667 -1.955923 -2.8783 4.727802 -4.170591 4.993927 11.020534 2e-06 -2e-06 12.109058 -3.735718 -2.866785 -1e-06 -0.0 0.0 1.291987 -1.928551 -1.49809 14.800136 0.567467 3.86561 14.242579 -1.341739 -6.660662 19.631979 0.143925 -0.648245 49.915859 -0.181833 -5.873184 0.353029 -1.511152 -0.031939 20.222803 3.684311 2.316631 18.787287 4e-06 0.0 10.751634 -0.479869 1.397906 0.0 -0.0 2e-06 3.273809 0.305947 -0.580112 21.486828 11.830381 2.266135 8.162933 2e-06 -1e-06 18.399099 -3.798987 -4.940577 4e-06 0.0 -2e-06 -5.629263 3.910399 -1.310359 -0.000294 -0.156752 16.12401 0.301244 4.1691 -9.587232 1.616958 -2.051347 0.144596 0.0 0.0 2e-06 -3.07078 3.039722 -19.666321 -0.086796 -0.408244 72.671837 -3.28245 -11.751506 11.395797 -1.538731 0.963736 -3.211192 -0.0 0.0 -1e-06 
0.0 0.0 0.0 0.0 -0.0 0.0 5.450096 99.200043 14.952654 1.979204 2.902367 -4.07849 -0.648246 -0.200773 2.16413 -0.376325 0.22059 -4.36148 0.853578 -2.044985 11.690531 -0.000122 2.88683 8.258956 -0.892739 -1.514454 -3.595764 3.104814 -2.855972 -10.6373 7.7e-05 -2.2e-05 6e-06 0.014534 0.033626 0.022328 0.705004 -3.715298 -10.664619 -0.679765 3.785772 -10.667968 -2.774235 -6.946986 15.939716 -64.818527 -12.639877 25.058901 -0.491059 -37.267372 0.015819 13.459237 6.736951 -9.625126 -5.882109 9.861289 0.70259 -10.936878 -0.360575 7.156211 0.0 8.774828 -0.0 -16.284945 18.537165 5.859171 -1.844033 2.498505 -2.507279 -10.163604 4.678946 4.62111 -20.976034 -2e-06 3e-06 -21.226295 2.451699 -3.594 1e-06 -6e-06 -1e-06 -1.362684 2.2408 -0.746326 -21.334927 0.584909 3.008325 -13.821221 -3e-06 2e-06 -23.887182 -0.249078 -0.839481 -60.383854 2.535285 -1.248955 -0.294024 1.679688 0.833256 -14.218217 0.093214 1.300584 -34.212067 -0.287562 0.967173 -20.033222 0.964539 1.212846 0.0 0.0 -1e-06 -3.440391 0.788233 0.501655 -15.928194 -3.16731 2.99971 -6.338829 -2e-06 0.0 -18.123457 3.648184 -4.905673 -4e-06 -0.0 -3e-06 9.068658 12.46111 17.513245 66.809349 11.294242 11.743167 0.188771 30.96994 -0.006391 -8.765471 -5.30099 -16.677652 2.243543 -5.255037 -3.180158 14.282896 -0.826595 6.952504 -2e-06 -12.690607 1e-06 16.72175 -17.728081 2.459988 1.665668 -1.955922 -2.8783 4.727801 -4.170589 4.993925 11.020532 2e-06 -3e-06 12.109059 -3.735717 -2.866786 -1e-06 -0.0 0.0 1.291986 -1.92855 -1.498089 14.800134 0.567467 3.865607 14.242579 -1.341735 -6.660661 19.631975 0.143926 -0.648247 49.998962 -0.275279 -5.939694 0.353029 -1.511152 -0.031941 20.222801 3.684309 2.316628 18.787279 5e-06 -2e-06 10.751631 -0.479869 1.397905 0.0 -0.0 2e-06 3.273808 0.305948 -0.580111 21.486824 11.830378 2.26613 8.16293 1e-06 -2e-06 18.39909 -3.798986 -4.940578 4e-06 0.0 -2e-06 -4.035591 3.300289 3.70344 0.016162 -0.183703 11.711739 0.217915 3.26932 -9.488074 1.634786 -1.950677 0.120882 0.0 0.0 2e-06 -1.377651 3.311868 -24.035311 -0.139441 -0.396666 67.280975 -2.183363 -12.103305 8.848131 -1.534546 0.986588 -3.347887 -0.0 -0.0 -2e-06 
